<?xml version="1.0" standalone="no"?>
<!DOCTYPE svg PUBLIC "-//W3C//DTD SVG 20010904//EN"
 "http://www.w3.org/TR/2001/REC-SVG-20010904/DTD/svg10.dtd">
<svg version="1.0" xmlns="http://www.w3.org/2000/svg"
 width="164.000000pt" height="164.000000pt" viewBox="0 0 164.000000 164.000000"
 preserveAspectRatio="xMidYMid meet">
<metadata>
Created by potrace 1.11, written by Peter Selinger 2001-2013
</metadata>
<g transform="translate(0.000000,164.000000) scale(0.100000,-0.100000)"
fill="#000000" stroke="none">
<path d="M12 1355 c-3 -5 -6 -247 -6 -537 l-1 -528 148 0 147 0 0 228 c0 190
3 231 16 250 18 26 46 28 68 6 14 -13 16 -50 16 -250 l0 -234 148 0 148 0 -1
287 c-2 338 -7 366 -84 443 -74 74 -183 90 -268 40 -19 -11 -36 -20 -39 -20
-2 0 -4 72 -4 160 0 121 -3 160 -12 161 -94 5 -271 2 -276 -6z"/>
<path d="M1120 1074 c-62 -19 -88 -33 -140 -73 -80 -63 -125 -134 -145 -226
-63 -297 186 -550 481 -489 59 12 118 37 158 67 19 14 16 19 -58 108 -43 52
-83 96 -88 98 -5 1 -18 -5 -29 -15 -26 -24 -93 -22 -121 2 -81 74 -70 255 19
302 39 21 82 14 115 -18 41 -42 33 -55 -38 -56 -32 -1 -64 -2 -71 -3 -14 -1
-27 -72 -18 -109 l6 -28 217 2 c119 1 221 2 226 3 9 1 0 137 -11 168 -39 113
-133 216 -229 253 -72 28 -206 35 -274 14z"/>
</g>
</svg>
